<?xml version="1.0" encoding="UTF-8"?>
<svg xmlns="http://www.w3.org/2000/svg" xmlns:xlink="http://www.w3.org/1999/xlink"
  viewBox="0 0 900 900">
  <path
    d="m889.45,450c0-35.73-4.24-70.48-12.24-103.8l-21.69,32.53c4.04,23.16,6.15,46.96,6.15,71.26h-111.18c0-5.44-.07-10.84-.21-16.22-1.04-1.23-2-2.51-2.9-3.85l-27.81-41.72c2.05,20.15,3.11,40.78,3.11,61.79h-138.97c0-51.02-2.81-102.73-8.17-152.07,26.1-5.15,51.49-11.82,75.93-19.92-3.1-8.77-5.32-17.81-6.59-27.04-23.36,7.87-47.67,14.36-72.71,19.39-12.78-97.17-36.07-181.83-69.26-227.95,60.04,19.25,112.81,67.75,151.6,134.96,4.1-9.76,9.27-18.96,15.38-27.45-22.39-35.67-48.69-66.02-77.98-89.52,38.69,14.66,74.65,34.84,106.9,59.64,7.9-6.07,16.45-11.31,25.55-15.61C647.89,42.45,550.57,5.28,444.72,5.28,199.51,5.28,0,204.8,0,450c0,3.76.47,7.4.55,11.12-.19.92-.55,1.79-.55,2.79,0,1.66.41,3.19.95,4.66,9.83,236.56,204.82,426.15,443.77,426.15s433.94-189.59,443.78-426.15c.52-1.47.94-3,.94-4.66,0-1-.36-1.87-.55-2.79.08-3.72.55-7.36.55-11.12Zm-306.14,27.8h138.43c-2.53,57.12-12.68,111.01-29.06,159.58-36.65-15.35-76.02-27.22-117.15-35.33,4.39-40.39,6.98-82.33,7.78-124.25Zm-27.4-27.8h-222.36c0-52.89,2.84-102.03,7.65-147.05,33.8,5.22,68.49,8.08,103.53,8.08s69.74-2.87,103.54-8.08c4.8,45.03,7.64,94.16,7.64,147.05Zm-.41,27.8c-.78,42.39-3.28,82.3-7.22,119.26-33.8-5.22-68.46-8.08-103.51-8.08s-69.76,2.89-103.56,8.08c-3.92-36.96-6.45-76.88-7.23-119.26h221.53ZM444.72,33.08c38.92,0,81.05,93.92,100.37,242.21-32.74,5.12-66.34,7.95-100.37,7.95s-67.63-2.83-100.37-7.95c19.32-148.29,61.46-242.21,100.37-242.21Zm-127.44,237.28c-39-7.81-76.25-19.23-110.87-33.83,39.03-97.64,103.7-169.6,180.16-194.12-33.22,46.11-56.5,130.81-69.29,227.95Zm-11.53,179.64h-138.98c0-67.43,10.98-130.97,29.99-187.39,36.67,15.34,76.02,27.21,117.16,35.32-5.34,49.33-8.17,101.04-8.17,152.07Zm8.17,152.08c-41.14,8.14-80.49,20.01-117.16,35.32-16.38-48.55-26.52-102.47-29.05-159.6h138.42c.81,41.91,3.39,83.85,7.79,124.28Zm-16.35-541.67c-48.31,38.74-88.45,96.11-116.38,165.18-21.96-10.67-42.31-22.96-61.34-36.3,46.27-57.54,107.5-102.29,177.72-128.88ZM103.2,211.55c21.1,14.81,43.83,28.29,68.29,40.03-20.63,59.82-32.51,127.08-32.51,198.43H27.8c0-88.66,28.04-170.79,75.41-238.45ZM29.21,477.8h110.74c2.61,61.04,13.65,118.68,31.55,170.64-24.46,11.73-47.17,25.21-68.29,40.03-42.36-60.48-68.82-132.64-73.99-210.66Zm90.66,232.93c19.04-13.31,39.39-25.61,61.35-36.28,27.9,69.07,68.04,126.42,116.35,165.16-70.22-26.59-131.45-71.34-177.7-128.88Zm86.53-47.26c34.63-14.59,71.88-25.98,110.87-33.82,12.79,97.14,36.07,181.83,69.29,227.95-76.46-24.52-141.14-96.48-180.16-194.13Zm238.31,203.47c-38.91,0-81.05-93.92-100.37-242.21,32.74-5.12,66.35-7.96,100.4-7.96s67.6,2.84,100.34,7.96c-19.32,148.29-61.45,242.21-100.37,242.21Zm127.44-237.28c39.03,7.84,76.25,19.23,110.88,33.82-39.03,97.65-103.71,169.61-180.17,194.16,33.22-46.14,56.51-130.84,69.29-227.97Zm19.72,209.96c48.31-38.74,88.44-96.11,116.35-165.18,21.96,10.67,42.3,22.96,61.34,36.27-46.25,57.54-107.48,102.32-177.69,128.91Zm194.36-151.18c-21.09-14.81-43.83-28.29-68.29-40.03,17.9-51.94,28.94-109.57,31.55-170.61h110.74c-5.17,77.99-31.62,150.15-73.99,210.63Z" />
  <path
    d="m784.37,116.19c-13.59,0-26.62,2.34-38.73,6.65-9.56,3.4-18.54,8.01-26.74,13.68-14.24,9.78-26.17,22.69-34.82,37.72-6.11,10.61-10.58,22.29-13.06,34.68-1.49,7.4-2.27,15.06-2.27,22.9,0,3.48.16,6.93.47,10.32.86,9.55,2.92,18.73,6,27.43,3.74,10.56,8.99,20.43,15.48,29.36.25.45.29.96.56,1.39l19.36,29.05,36.42,54.63,21.31,31.95c3.58,5.37,9.6,8.58,16.03,8.58s12.46-3.21,16.04-8.58l47.62-71.44,20.2-30.3,9.26-13.89c.29-.43.32-.94.56-1.39,13.7-18.9,21.94-41.96,21.94-67.11,0-63.85-51.77-115.63-115.63-115.63Zm29.43,140.51c-7.07,8.35-17.63,13.66-29.43,13.66-19.57,0-35.75-14.6-38.22-33.5-.22-1.65-.33-3.33-.33-5.04,0-21.29,17.27-38.54,38.54-38.54s38.54,17.26,38.54,38.54c0,9.49-3.43,18.17-9.11,24.88Z" />

</svg>