<svg viewBox="0 0 38 38" fill="none" xmlns="http://www.w3.org/2000/svg">
<g clip-path="url(#clip0_24_258)">
<path d="M3.98584 18.5378C3.98584 22.5371 5.57457 26.3726 8.40253 29.2006C11.2305 32.0285 15.066 33.6173 19.0654 33.6173C23.0647 33.6173 26.9002 32.0285 29.7282 29.2006C32.5561 26.3726 34.1449 22.5371 34.1449 18.5378C34.1449 14.5384 32.5561 10.7029 29.7282 7.87494C26.9002 5.04698 23.0647 3.45825 19.0654 3.45825C15.066 3.45825 11.2305 5.04698 8.40253 7.87494C5.57457 10.7029 3.98584 14.5384 3.98584 18.5378Z" fill="#4766AC"/>
<path d="M32.7185 24.9432C30.3083 30.067 25.0983 33.6173 19.0654 33.6173C10.7427 33.6173 3.98585 26.8604 3.98585 18.5378C3.98156 15.4808 4.91111 12.4955 6.65009 9.98132C5.70807 11.9851 5.22112 14.1725 5.22415 16.3867C5.22415 24.7094 11.981 31.4662 20.3037 31.4662C25.4497 31.4662 29.9969 28.8829 32.7185 24.9432Z" fill="#3F5A98"/>
<path d="M32.7185 24.9432C29.9969 28.8829 25.4497 31.4662 20.3036 31.4662C11.981 31.4662 5.22414 24.7094 5.22414 16.3867C5.22111 14.1725 5.70806 11.9851 6.65007 9.98133C7.02329 9.44135 7.43111 8.92614 7.87098 8.43892C7.82851 8.60068 7.78848 8.76325 7.75127 8.92704C7.16204 10.5648 6.86169 12.2925 6.8636 14.0331C6.8636 22.3554 13.6204 29.1126 21.9431 29.1126C26.3196 29.1126 30.2634 27.2438 33.019 24.2617C32.9245 24.4913 32.8244 24.7186 32.7185 24.9432Z" fill="#32539D"/>
<path d="M33.0189 24.2617C30.2633 27.2438 26.3195 29.1126 21.943 29.1126C13.6204 29.1126 6.86353 22.3554 6.86353 14.0331C6.86353 12.2411 7.17654 10.522 7.7512 8.92703C7.50166 10.0265 7.37606 11.1505 7.37672 12.2779C7.37672 20.6006 14.1339 27.3575 22.4562 27.3575C26.8962 27.3575 30.8905 25.4345 33.651 22.3768C33.4823 23.0184 33.2711 23.6481 33.0189 24.2617Z" fill="#3A5AA3"/>
<path d="M10.0471 29.8684C7.81719 28.5201 6.98896 27.8456 5.73449 25.555C4.54738 23.3882 3.92683 20.9567 3.93044 18.486C3.93044 15.4457 4.85248 12.6189 6.43209 10.2705C6.93639 9.52071 8.17104 8.72929 8.8003 8.08588C8.26082 8.82028 7.12161 9.69825 6.71518 10.5285C5.03123 13.9688 4.53583 18.1463 5.61964 22.3165C5.88411 23.3375 6.23868 24.3331 6.67919 25.2914C7.74075 27.5981 8.23979 28.328 10.0471 29.8684ZM20.6761 16.9982C20.6761 16.9982 21.1521 16.3544 22.2569 16.9448C22.2569 16.9448 22.6589 16.9112 23.0144 16.5004C23.0144 16.5004 23.8123 16.5161 24.5548 17.7565C24.5548 17.7565 25.5071 17.877 24.3238 16.5804C23.1406 15.2839 22.1769 15.7579 22.248 15.2127C22.3192 14.6676 23.1503 14.8095 23.4212 14.1269C23.6922 13.4447 22.8073 12.724 22.4915 12.2816C22.1752 11.8392 22.4915 11.4412 23.5025 11.5678C24.5135 11.694 24.7719 11.2827 24.431 10.7869C24.0901 10.2907 25.1213 10.296 25.7284 10.6349C26.335 10.9733 28.3279 11.0453 28.6437 10.6094C28.96 10.1734 29.7813 8.64396 30.3503 10.0974C30.9189 11.5508 32.4621 10.9843 32.7901 15.1306C33.1177 19.277 33.5945 19.7247 33.002 21.1369C32.4096 22.5487 31.4519 20.4898 30.9978 20.1048C30.5432 19.7198 30.3952 20.174 30.415 21.0924C30.4348 22.0104 30.2868 23.9261 29.793 23.3931C29.2993 22.8597 28.3202 19.3874 27.4519 20.1509C26.5837 20.9145 26.1789 23.0473 24.9939 22.6227C23.809 22.198 24.5641 21.1895 23.5688 20.8421C22.5736 20.4943 21.5553 20.4733 21.4433 19.6891C21.3316 18.9046 20.6053 19.4647 20.7521 18.4634C20.8985 17.4624 20.484 17.1806 20.6761 16.9982Z" fill="#6C8CC7"/>
<path d="M31.3124 23.8132C31.3124 23.8132 31.2732 24.2209 31.3613 24.1808C31.4491 24.1412 31.4556 24.1311 31.5069 24.176C31.5583 24.2209 31.5587 24.0547 31.6372 24.0559C31.7156 24.0567 31.6343 24.1562 31.699 24.1594C31.7637 24.1626 31.8563 23.4654 31.9858 23.1055C31.9858 23.1055 32.1435 23.0125 32.01 22.7335C31.8766 22.4544 32.3052 22.0334 32.0949 21.9607C31.8846 21.8879 31.9817 22.3412 31.8038 22.503C31.6258 22.6647 31.7633 22.8427 31.7512 22.9963C31.7391 23.15 31.7771 23.1937 31.5397 23.2285C31.3023 23.2632 31.2214 23.6838 31.3124 23.8132ZM12.6114 11.2807C12.6114 11.2807 12.0966 10.4723 13.1008 9.99831C14.1049 9.52475 13.3839 9.20527 13.4356 9.00953C13.487 8.8142 14.2287 8.48947 14.6974 8.72645C15.1657 8.96343 15.2842 8.95817 15.7221 8.93229C16.1597 8.90681 17.1493 9.68489 16.2786 9.76173C15.4079 9.83897 15.6603 10.4876 15.1968 10.6886C14.7334 10.8892 14.441 10.8791 13.8093 10.8969C13.178 10.9151 13.5848 11.2087 13.1934 11.4145C12.8019 11.6208 12.7865 11.4712 12.6114 11.2807ZM13.8898 14.8791C13.8898 14.8791 12.8452 14.3509 12.6826 15.3858C12.52 16.4207 12.5326 17.2817 13.1299 17.1377C13.7272 16.9933 14.2258 17.1211 14.8191 16.252C15.4124 15.3826 15.5895 15.1767 16.3599 15.9305C17.1303 16.6844 17.4481 17.665 18.1522 16.6795C18.8563 15.6936 18.7123 16.4704 19.3962 15.844C20.08 15.218 20.7319 16.1441 21.8133 16.2213C22.8947 16.2986 22.0604 16.1234 21.8339 15.3256C21.8339 15.3256 22.2302 15.0809 22.0191 14.4783C21.808 13.8758 22.4025 14.2676 22.4288 14.2349C22.4551 14.2017 23.454 14.1188 22.9958 13.5065C22.5376 12.8939 22.2444 13.3824 21.855 12.3507C21.4655 11.3187 22.21 10.1018 20.8925 10.2122C20.8925 10.2122 19.7112 11.3794 18.5821 10.8561C17.4526 10.3332 16.1848 10.598 15.7019 11.3834C15.2191 12.1688 15.3157 12.0013 15.232 12.7867C15.1483 13.572 14.4814 14.0076 13.6625 13.8737C12.844 13.7399 13.8647 14.8289 13.8898 14.8791Z" fill="#6C8CC7"/>
<path d="M12.5937 18.2207C12.5937 18.2207 13.9808 17.8826 14.5526 17.2069C15.1244 16.5311 15.2478 16.739 15.4516 15.971C15.4516 15.971 15.9373 15.493 16.814 17.2473C16.814 17.2473 17.7798 18.4621 18.496 16.893C18.496 16.893 18.7613 16.4183 19.4051 17.5369C19.4051 17.5369 19.7674 17.8826 20.0651 17.1587C20.0651 17.1587 20.5237 17.3921 20.1132 18.414C19.7027 19.4359 20.4213 19.2709 20.8617 19.3842C21.3017 19.497 20.761 20.2266 21.4651 20.8675C22.1692 21.5089 22.9177 21.0782 23.2809 21.1996C23.6441 21.3213 21.0914 23.1253 21.1671 24.32C21.2423 25.5142 21.8085 25.885 20.262 26.4257C18.7156 26.9664 19.7969 27.1294 19.7436 27.4298C19.6898 27.7307 19.1911 28.4352 18.4001 28.398C17.6091 28.3612 17.6423 28.9791 17.1768 28.0563C16.7113 27.1334 15.7375 26.564 16.6256 25.2764C17.5137 23.9888 15.8714 24.1238 16.1156 23.1197C16.3603 22.1155 15.2122 22.983 14.5526 22.5709C13.893 22.1592 12.1411 22.3339 12.2414 20.1716C12.3421 18.0092 11.3566 19.5791 12.5937 18.2207ZM7.31453 9.6675C7.31453 9.6675 9.55737 6.93169 10.1207 6.87103C10.1207 6.87103 9.72843 7.54518 9.72843 7.65558C9.72843 7.76639 9.34506 7.91157 9.64472 8.30061C9.64472 8.30061 9.78465 8.39969 9.82023 8.5938C9.85582 8.78832 9.92174 8.85748 10.3864 8.44862C10.3864 8.44862 10.6796 8.47693 10.6962 8.80288C10.7128 9.12924 10.7686 9.04027 10.8575 9.12924C10.9469 9.21821 10.5348 9.60887 9.63502 9.66184C9.63502 9.66184 9.06238 9.72048 8.72995 10.2478C8.39794 10.7752 8.41897 10.8253 8.45334 10.8148C8.48772 10.8043 9.97472 9.51747 10.4175 9.88952C10.4175 9.88952 10.5704 9.9789 10.0827 10.2903C10.0827 10.2903 9.88251 10.4694 10.4175 10.7489C10.953 11.0283 10.0774 11.3446 10.09 11.5302C10.1025 11.7158 10.4572 11.954 10.1595 12.0656C9.86229 12.1777 9.05267 12.011 8.95804 12.0952C8.86341 12.1797 8.92083 12.1914 8.83146 12.2642C8.74209 12.3366 8.58154 12.3483 8.67779 12.6431C8.77403 12.9375 8.82539 13.3771 7.66273 13.0803C7.66273 13.0803 7.98706 12.6617 7.816 12.6172C7.64453 12.5724 7.54949 12.5986 7.29391 13.1786C7.29391 13.1786 6.4859 14.2345 5.85988 14.5802C5.85988 14.5802 5.62492 15.0756 5.60996 15.3243C5.60996 15.3243 5.44334 15.4489 5.42029 15.1513C5.39684 14.854 5.28118 14.74 5.18614 14.8815C5.0911 15.0227 5.05511 15.4627 5.12063 15.6523C5.18614 15.8424 5.39684 16.1287 4.88931 17.0516C4.88931 17.0516 4.55324 17.714 5.14651 18.1888C5.73977 18.6635 7.16126 21.0681 6.69458 21.4705C6.22789 21.8729 7.13053 21.6897 7.34405 21.8664C7.55758 22.0432 7.46012 22.1592 7.81357 22.2462C8.16662 22.3331 8.06875 23.1031 8.95885 23.5678C9.84854 24.0324 8.80153 24.7223 9.02032 25.1547C9.2391 25.587 9.32484 26.4293 8.75179 26.7318C8.17915 27.0343 8.74775 27.7619 9.02032 28.032C9.29289 28.3026 10.606 29.9764 10.4062 29.9889C10.2068 30.0019 7.55273 28.9249 6.2101 25.6298C4.86747 22.3343 4.41817 21.1179 4.34417 19.7619C4.27016 18.4055 4.38178 14.6793 5.30059 13.2344C6.21899 11.789 5.70702 11.7417 7.31453 9.6675ZM22.0479 27.6025C22.0479 27.6025 21.5238 28.3859 22.0361 28.4405C22.5481 28.4947 22.5121 28.5367 22.6266 28.1327C22.741 27.7291 22.8676 27.5544 23.181 27.3073C23.4944 27.0602 23.422 26.6202 23.3921 26.325C23.3618 26.0294 23.2194 25.7584 23.1159 26.12C23.0124 26.4815 23.1572 26.6081 22.7774 26.6805C22.3977 26.7529 22.4098 26.6384 22.3192 26.9154C22.229 27.1929 21.9759 27.1868 22.0301 27.3736C22.0843 27.5605 22.0479 27.6025 22.0479 27.6025Z" fill="#6C8CC7"/>
<path d="M17.7373 2.78815C17.0838 2.78815 16.5532 10.1318 16.5532 19.1767C16.5532 28.2221 17.0838 35.5653 17.7373 35.5653C17.5739 31.4683 17.4413 25.5352 17.4413 19.1767C17.4413 12.8182 17.5739 6.88559 17.7373 2.78815Z" fill="#DEE5F6"/>
<path d="M0.627686 18.1665C0.627686 19.1383 8.61027 19.9273 18.4426 19.9273C28.2749 19.9273 36.2575 19.1383 36.2575 18.1665C31.8038 18.4096 25.3543 18.6069 18.4426 18.6069C11.5309 18.6069 5.08142 18.4096 0.627686 18.1665Z" fill="#DEE5F6"/>
<path d="M16.2616 2.15688C11.5871 2.15688 7.79175 9.67924 7.79175 18.9446C7.79175 28.2104 11.5871 35.7327 16.2616 35.7327C12.2281 34.9656 8.9532 27.7073 8.9532 18.9446C8.9532 10.1823 12.2281 2.92403 16.2616 2.15688Z" fill="#DEE5F6"/>
<path d="M1.01758 19.5294C1.01758 24.2043 8.93869 27.9997 18.6954 27.9997C28.4521 27.9997 36.3736 24.2043 36.3736 19.5294C35.5656 23.5629 27.9223 26.8378 18.6954 26.8378C9.46846 26.8378 1.82558 23.5629 1.01758 19.5294Z" fill="#DEE5F6"/>
<path d="M16.0254 1.81271C7.18064 1.81271 0 9.30313 0 18.5289C0 27.755 7.18064 35.245 16.0254 35.245C7.92758 34.7743 1.35355 27.446 1.35355 18.5289C1.35355 9.61169 7.92758 2.28344 16.0254 1.81271ZM21.5985 1.98459C30.4429 1.98459 37.6236 9.475 37.6236 18.7007C37.6236 27.9269 30.4429 35.4169 21.5985 35.4169C29.696 34.9466 36.27 27.6183 36.27 18.7007C36.27 9.78357 29.696 2.45532 21.5985 1.98459Z" fill="#DEE5F6"/>
<path d="M19.9883 2.47272C24.6632 2.47272 28.4586 9.99508 28.4586 19.2604C28.4586 28.5262 24.6632 36.0486 19.9883 36.0486C24.0218 35.2814 27.2967 28.0231 27.2967 19.2604C27.2967 10.4982 24.0218 3.23988 19.9883 2.47272Z" fill="#DEE5F6"/>
<path d="M0.945801 16.5986C0.945801 11.9237 8.96033 8.12834 18.8323 8.12834C28.7043 8.12834 36.7188 11.9237 36.7188 16.5986C35.9011 12.5647 28.168 9.2898 18.8323 9.2898C9.49657 9.2898 1.76351 12.5647 0.945801 16.5986Z" fill="#DEE5F6"/>
</g>
<defs>
<clipPath id="clip0_24_258">
<rect width="38" height="38" fill="white"/>
</clipPath>
</defs>
</svg>
