<?xml version="1.0" encoding="UTF-8"?>
<svg id="_Слой_2" data-name="Слой 2" xmlns="http://www.w3.org/2000/svg"
  xmlns:xlink="http://www.w3.org/1999/xlink" viewBox="0 0 512 512">


  <rect x="234.8" y="231.93" width="42.4" height="134.4" rx="4.24" ry="4.24" />
  <path
    d="m280.59,189.75c0,13.56-11.04,24.59-24.59,24.59s-24.59-11.03-24.59-24.59,11.03-24.59,24.59-24.59,24.59,11.04,24.59,24.59Z" />

  <path
    d="m256,512c-68.38,0-132.67-26.63-181.02-74.98C26.63,388.67,0,324.38,0,256S26.63,123.33,74.98,74.98C123.33,26.63,187.62,0,256,0s132.67,26.63,181.02,74.98c48.35,48.35,74.98,112.64,74.98,181.02s-26.63,132.67-74.98,181.02c-48.35,48.35-112.64,74.98-181.02,74.98Zm0-492.75C125.45,19.25,19.25,125.45,19.25,256s106.21,236.75,236.75,236.75h0c130.55,0,236.75-106.21,236.75-236.75S386.55,19.25,256,19.25Z" />
</svg>