<?xml version="1.0" encoding="UTF-8"?>
<svg xmlns="http://www.w3.org/2000/svg" viewBox="0 0 512.6 512.6">
    <path class="cls-1" d="m437.53,75.07C391.15,28.69,327.07,0,256.3,0S121.45,28.69,75.07,75.07C28.69,121.45,0,185.52,0,256.3c0,141.55,114.75,256.3,256.3,256.3,70.77,0,134.85-28.69,181.23-75.07,46.38-46.38,75.07-110.45,75.07-181.23s-28.69-134.85-75.07-181.23Zm-159.2,281.34c0,2.44-1.97,4.41-4.41,4.41h-35.24c-2.43,0-4.41-1.97-4.41-4.41v-130.84c0-2.43,1.98-4.4,4.41-4.4h35.24c2.44,0,4.41,1.97,4.41,4.4v130.84Zm-22.03-153.52c-14.09,0-25.55-11.47-25.55-25.56s11.46-25.55,25.55-25.55,25.55,11.47,25.55,25.55-11.46,25.56-25.55,25.56Z"/>
</svg>