<?xml version="1.0" encoding="UTF-8"?>
<svg xmlns="http://www.w3.org/2000/svg" xmlns:xlink="http://www.w3.org/1999/xlink" viewBox="0 0 900 900">
  
        <path d="m805.55,614.44c0-111.41-90.67-202.06-202.11-202.06-10.35,0-20.52.78-30.46,2.29v-11.4c5.74-1.23,10.04-6.34,10.04-12.45v-43.35c0-6.11-4.3-11.21-10.04-12.44v-46.7c5.74-1.23,10.04-6.33,10.04-12.44v-43.35c0-6.11-4.3-11.21-10.04-12.45v-14.16c5.74-1.23,10.04-6.34,10.04-12.44v-43.35c0-6.11-4.3-11.21-10.04-12.44V58.76c0-32.4-26.37-58.76-58.78-58.76H153.23c-32.41,0-58.78,26.36-58.78,58.76v782.47c0,32.4,26.37,58.76,58.78,58.76h360.97c32.41,0,58.78-26.36,58.78-58.76v-27.02c9.93,1.51,20.1,2.29,30.46,2.29,108.6,0,197.21-86.14,201.68-193.63.24-.67.43-1.36.43-2.12,0-.46-.16-.85-.25-1.26.04-1.69.25-3.35.25-5.05Zm-54.47-118.45c-8.65,6.05-17.9,11.63-27.88,16.48-12.68-31.38-30.93-57.45-52.88-75.06,31.89,12.09,59.72,32.42,80.75,58.57Zm-84.48,118.45c0-23.19-1.28-46.68-3.71-69.09,18.7-3.69,36.58-9.09,53.24-16.05,8.64,25.64,13.63,54.51,13.63,85.15h-63.16Zm62.73,12.63c-1.15,25.96-5.76,50.44-13.2,72.5-16.66-6.97-34.55-12.36-53.24-16.05,2-18.35,3.17-37.41,3.54-56.45h62.91Zm-17.57-109.62c-15.75,6.63-32.68,11.81-50.4,15.37-5.81-44.15-16.4-82.62-31.48-103.57,34.75,11.14,64.15,43.84,81.88,88.2Zm-158.84,96.99c0-19.86.88-38.55,2.42-55.99.32-3.67.68-7.28,1.06-10.84,5.48.85,11.02,1.56,16.6,2.12,10.04,1.02,20.22,1.55,30.46,1.55,15.93,0,31.69-1.3,47.05-3.68,2.18,20.46,3.47,42.79,3.47,66.82h-101.05Zm100.86,12.63c-.35,19.26-1.49,37.4-3.28,54.19-15.36-2.37-31.11-3.68-47.04-3.68-10.25,0-20.43.54-30.47,1.56-5.58.56-11.11,1.27-16.6,2.11-.38-3.61-.73-7.28-1.06-11-1.18-13.63-1.95-28.06-2.23-43.19h100.67Zm-50.34-202.06c17.68,0,36.83,42.67,45.61,110.05-14.88,2.32-30.15,3.61-45.61,3.61-10.26,0-20.43-.57-30.46-1.63-5.09-.54-10.15-1.2-15.16-1.98,3.59-27.54,8.91-50.95,15.16-69.01,9.03-26.12,20-41.04,30.46-41.04Zm-30.46,5.64c1.33-.5,2.68-.96,4.03-1.4-1.38,1.92-2.73,3.98-4.03,6.19-6.98,11.77-12.87,27.48-17.65,45.73-4.09,15.64-7.37,33.15-9.81,51.65-17.72-3.55-34.65-8.74-50.39-15.37,13.91-34.79,34.99-62.41,60.19-78.08,5.69-3.54,11.58-6.46,17.65-8.73Zm-93.71,93.64c-9.37,27.18-14.78,57.74-14.78,90.16h-50.53c0-40.29,12.75-77.61,34.27-108.35,9.59,6.73,19.92,12.86,31.04,18.19Zm-23.47-28.3c21.03-26.14,48.86-46.47,80.77-58.56-21.95,17.61-40.19,43.67-52.89,75.06-9.98-4.85-19.23-10.43-27.88-16.49Zm9.13,131.09c1.19,27.74,6.2,53.93,14.34,77.53-11.12,5.33-21.44,11.45-31.04,18.18-19.25-27.48-31.28-60.26-33.63-95.72h50.32Zm18.76,89.35c12.68,31.38,30.92,57.44,52.88,75.04-31.91-12.08-59.74-32.42-80.75-58.56,8.65-6.05,17.9-11.63,27.88-16.48Zm-6.14-89.35h62.91c.37,19.04,1.54,38.1,3.54,56.47-18.7,3.7-36.58,9.09-53.24,16.05-7.44-22.06-12.05-46.56-13.2-72.52Zm62.73-12.63h-63.16c0-30.64,4.99-59.51,13.63-85.15,16.66,6.97,34.55,12.36,53.24,16.05-2.42,22.42-3.71,45.91-3.71,69.09Zm15.05,226.79c0,22.67-18.45,41.11-41.12,41.11H153.23c-22.68,0-41.12-18.44-41.12-41.11V58.76c0-22.67,18.45-41.11,41.12-41.11h360.97c22.68,0,41.12,18.44,41.12,41.11v359.4c-88.29,21.64-154,101.43-154,196.28,0,1.7.21,3.36.25,5.05-.09.42-.25.81-.25,1.26,0,.76.19,1.45.43,2.12,3.79,91.08,67.99,166.83,153.57,187.84v30.52Zm17.65-43c-6.07-2.26-11.97-5.19-17.65-8.73-25.21-15.67-46.29-43.29-60.19-78.08,15.74-6.63,32.67-11.81,50.39-15.37,2.44,18.5,5.71,36.02,9.81,51.65,4.78,18.25,10.67,33.96,17.65,45.73,1.3,2.2,2.65,4.27,4.03,6.19-1.35-.43-2.7-.9-4.03-1.4Zm30.46,5.64c-10.46,0-21.42-14.92-30.46-41.04-6.25-18.06-11.57-41.47-15.16-69.01,5.01-.78,10.06-1.45,15.16-1.98,10.03-1.06,20.21-1.63,30.47-1.63,15.46,0,30.72,1.29,45.6,3.61-8.78,67.38-27.93,110.05-45.61,110.05Zm57.92-107.82c17.73,3.56,34.65,8.74,50.39,15.37-17.74,44.37-47.13,77.06-81.88,88.21,15.09-20.96,25.68-59.44,31.49-103.58Zm8.96,95.4c21.95-17.61,40.19-43.67,52.88-75.06,9.98,4.85,19.23,10.43,27.88,16.48-21.02,26.14-48.85,46.49-80.75,58.57Zm88.33-68.69c-9.59-6.73-19.92-12.86-31.04-18.18,8.14-23.61,13.15-49.78,14.34-77.52h50.32c-2.35,35.44-14.38,68.22-33.63,95.7Zm-16.26-108.33c0-32.42-5.41-62.98-14.78-90.16,11.12-5.33,21.45-11.46,31.04-18.19,21.52,30.74,34.27,68.06,34.27,108.35h-50.53Z"/>
        <rect x="317.73" y="45.26" width="18.17" height="18.17" rx="8.31" ry="8.31"/>

</svg>