<svg viewBox="0 0 38 38" fill="none" xmlns="http://www.w3.org/2000/svg">
<g clip-path="url(#clip0_26_310)">
<path d="M36.7643 19.328C36.7643 24.2328 34.7767 28.6739 31.5611 31.8895C30.7401 32.7105 29.8396 33.451 28.871 34.0989C26.0485 35.9904 22.6526 37.0928 18.9995 37.0928C15.3463 37.0928 11.6618 35.8931 8.76909 33.8522C4.21248 30.6366 1.23511 25.3297 1.23511 19.328C1.23511 14.4222 3.22397 9.98114 6.43831 6.76638C7.15642 6.04827 7.93631 5.3911 8.76909 4.8029C11.6618 2.76199 15.1906 1.56317 18.9995 1.56317C20.7666 1.56317 22.4728 1.8213 24.0829 2.30074C24.3449 2.37945 24.6047 2.46366 24.862 2.55337C26.2906 3.0527 27.6362 3.72849 28.871 4.55705C29.8396 5.20491 30.7401 5.94544 31.5611 6.76638C34.7767 9.98072 36.7643 14.4218 36.7643 19.328Z" fill="#6C8CC7"/>
<path d="M28.8714 3.6138V34.0989C26.049 35.9904 22.6531 37.0927 18.9999 37.0927C15.3467 37.0927 11.6623 35.8931 8.76953 33.8522V3.48516C8.76953 2.06122 9.9235 0.907257 11.3462 0.907257H26.1645C27.6595 0.907257 28.871 2.11919 28.871 3.6138H28.8714Z" fill="#DEE5F6"/>
<path d="M26.9126 4.83377H10.6449C10.5236 4.83377 10.4253 4.9321 10.4253 5.05339V33.4336C10.4253 33.5549 10.5236 33.6533 10.6449 33.6533H26.9126C27.0338 33.6533 27.1322 33.5549 27.1322 33.4336V5.05339C27.1322 4.9321 27.0338 4.83377 26.9126 4.83377Z" fill="#4766AC"/>
<path d="M21.6235 2.38281H15.8452C15.5647 2.38281 15.3374 2.61016 15.3374 2.89061V2.89103C15.3374 3.17148 15.5647 3.39883 15.8452 3.39883H21.6235C21.9039 3.39883 22.1313 3.17148 22.1313 2.89103V2.89061C22.1313 2.61016 21.9039 2.38281 21.6235 2.38281Z" fill="#32539D"/>
<path d="M24.3308 2.24994H24.3304C23.989 2.24994 23.7122 2.52673 23.7122 2.86818V2.8686C23.7122 3.21005 23.989 3.48684 24.3304 3.48684H24.3308C24.6723 3.48684 24.9491 3.21005 24.9491 2.8686V2.86818C24.9491 2.52673 24.6723 2.24994 24.3308 2.24994Z" fill="#32539D"/>
<path d="M14.4653 17.8029C14.2973 17.9531 14.2829 18.2112 14.4336 18.3792C14.5838 18.5472 14.8419 18.5616 15.0099 18.4109L14.4653 17.8024V17.8029ZM22.6311 18.4114C22.7991 18.5616 23.0572 18.5476 23.2074 18.3796C23.3577 18.2116 23.3437 17.9535 23.1757 17.8033L22.6311 18.4118V18.4114ZM18.8205 22.2638C18.595 22.2638 18.4122 22.4466 18.4122 22.6722C18.4122 22.8977 18.595 23.0805 18.8205 23.0805V22.2638ZM18.8248 23.0805C19.0503 23.0805 19.2331 22.8977 19.2331 22.6722C19.2331 22.4466 19.0503 22.2638 18.8248 22.2638V23.0805ZM19.919 21.4636C20.0858 21.6156 20.3439 21.6033 20.4958 21.4366C20.6477 21.2698 20.6355 21.0117 20.4687 20.8598L19.9195 21.4636H19.919ZM21.2922 19.9529C21.4589 20.1049 21.7171 20.0926 21.869 19.9254C22.0209 19.7587 22.0086 19.5006 21.8419 19.3487L21.2926 19.9525L21.2922 19.9529ZM17.1727 20.8594C17.006 21.0113 16.9937 21.2694 17.1456 21.4361C17.2976 21.6029 17.5557 21.6151 17.7224 21.4632L17.1731 20.8594H17.1727ZM15.7996 19.3487C15.6328 19.5006 15.6206 19.7587 15.7721 19.9254C15.924 20.0922 16.1821 20.1044 16.3488 19.9529L15.7996 19.3491V19.3487ZM15.0104 18.4114C16.0217 17.5062 17.3568 16.9561 18.8209 16.9561V16.1394C17.1482 16.1394 15.6214 16.7686 14.4658 17.8029L15.0104 18.4114ZM18.8209 16.9561C20.2851 16.9561 21.6202 17.5062 22.6315 18.4114L23.1761 17.8029C22.0205 16.7686 20.4937 16.1394 18.8209 16.1394V16.9561ZM18.8209 23.0805H18.8252V22.2638H18.8209V23.0805ZM18.8209 21.0392C19.2441 21.0392 19.6292 21.1996 19.9195 21.4636L20.4687 20.8598C20.0337 20.4641 19.4553 20.2225 18.8209 20.2225V21.0392ZM18.8209 18.9979C19.7731 18.9979 20.6397 19.3592 21.2926 19.9534L21.8419 19.3495C21.0447 18.6242 19.9838 18.1816 18.8205 18.1816V18.9983L18.8209 18.9979ZM17.7224 21.4641C18.0127 21.2 18.3978 21.0396 18.8209 21.0396V20.2229C18.1866 20.2229 17.6077 20.4645 17.1731 20.8602L17.7224 21.4641ZM16.3492 19.9534C17.0022 19.3592 17.8688 18.9979 18.8209 18.9979V18.1812C17.6577 18.1812 16.5972 18.6238 15.7996 19.3491L16.3488 19.9529L16.3492 19.9534Z" fill="white"/>
</g>
<defs>
<clipPath id="clip0_26_310">
<rect width="38" height="38" fill="white"/>
</clipPath>
</defs>
</svg>
