<svg viewBox="0 0 30 30" fill="none" xmlns="http://www.w3.org/2000/svg">
<g clip-path="url(#clip0_24_273)">
<path d="M15.8825 13.6158C15.8825 13.1535 15.5078 12.7788 15.0455 12.7788C14.5832 12.7788 14.2085 13.1535 14.2085 13.6158V22.5282C14.2085 22.9905 14.5832 23.3652 15.0455 23.3652C15.5078 23.3652 15.8825 22.9905 15.8825 22.5282V13.6158Z" fill="white"/>
<mask id="mask0_24_273" style="mask-type:luminance" maskUnits="userSpaceOnUse" x="14" y="12" width="2" height="12">
<path d="M15.8825 13.6158C15.8825 13.1535 15.5078 12.7788 15.0455 12.7788C14.5832 12.7788 14.2085 13.1535 14.2085 13.6158V22.5282C14.2085 22.9905 14.5832 23.3652 15.0455 23.3652C15.5078 23.3652 15.8825 22.9905 15.8825 22.5282V13.6158Z" fill="white"/>
</mask>
<g mask="url(#mask0_24_273)">
<path d="M15.0455 12.2484H12.5891V29.901H15.0455V12.2484Z" fill="white"/>
<path d="M17.5018 12.2484H15.0454V29.901H17.5018V12.2484Z" fill="white"/>
</g>
<path d="M6.22796 23.5416C6.22796 23.0793 5.85322 22.7046 5.39095 22.7046C4.92869 22.7046 4.55396 23.0793 4.55396 23.5416V25.7736C4.55396 26.2359 4.92869 26.6106 5.39095 26.6106C5.85322 26.6106 6.22796 26.2359 6.22796 25.7736V23.5416Z" fill="#4766AC"/>
<path d="M25.4448 23.5416C25.4448 23.0793 25.07 22.7046 24.6078 22.7046C24.1455 22.7046 23.7708 23.0793 23.7708 23.5416V25.7736C23.7708 26.2359 24.1455 26.6106 24.6078 26.6106C25.07 26.6106 25.4448 26.2359 25.4448 25.7736V23.5416Z" fill="#4766AC"/>
<path d="M5.049 4.227C5.049 3.76474 4.67426 3.39 4.212 3.39C3.74974 3.39 3.375 3.76474 3.375 4.227V21.6702C3.375 22.1325 3.74974 22.5072 4.212 22.5072C4.67426 22.5072 5.049 22.1325 5.049 21.6702V4.227Z" fill="#3F5A98"/>
<path d="M26.5636 4.2636C26.5636 3.80134 26.1889 3.4266 25.7266 3.4266C25.2644 3.4266 24.8896 3.80134 24.8896 4.2636V21.7068C24.8896 22.1691 25.2644 22.5438 25.7266 22.5438C26.1889 22.5438 26.5636 22.1691 26.5636 21.7068V4.2636Z" fill="#6C8CC7"/>
<path d="M27.3431 15.324H2.65613C1.90988 15.324 1.30493 15.929 1.30493 16.6752V23.7816C1.30493 24.5278 1.90988 25.1328 2.65613 25.1328H27.3431C28.0894 25.1328 28.6943 24.5278 28.6943 23.7816V16.6752C28.6943 15.929 28.0894 15.324 27.3431 15.324Z" fill="#6C8CC7"/>
<path d="M15.0454 15.324H27.334C28.0846 15.324 28.6942 15.9336 28.6942 16.6842V23.7696C28.6942 24.522 28.0834 25.1328 27.331 25.1328H15.0454V15.324Z" fill="#32539D"/>
<path d="M11.6543 19.4184H5.02191C4.57456 19.4184 4.21191 19.781 4.21191 20.2284C4.21191 20.6758 4.57456 21.0384 5.02191 21.0384H11.6543C12.1017 21.0384 12.4643 20.6758 12.4643 20.2284C12.4643 19.781 12.1017 19.4184 11.6543 19.4184Z" fill="white"/>
<path d="M18.9978 19.4184H18.423C17.9757 19.4184 17.613 19.781 17.613 20.2284C17.613 20.6758 17.9757 21.0384 18.423 21.0384H18.9978C19.4452 21.0384 19.8078 20.6758 19.8078 20.2284C19.8078 19.781 19.4452 19.4184 18.9978 19.4184Z" fill="white"/>
<path d="M22.0867 19.4184H21.5119C21.0646 19.4184 20.7019 19.781 20.7019 20.2284C20.7019 20.6758 21.0646 21.0384 21.5119 21.0384H22.0867C22.5341 21.0384 22.8967 20.6758 22.8967 20.2284C22.8967 19.781 22.5341 19.4184 22.0867 19.4184Z" fill="white"/>
<path d="M25.3177 19.4184H24.7429C24.2955 19.4184 23.9329 19.781 23.9329 20.2284C23.9329 20.6758 24.2955 21.0384 24.7429 21.0384H25.3177C25.765 21.0384 26.1277 20.6758 26.1277 20.2284C26.1277 19.781 25.765 19.4184 25.3177 19.4184Z" fill="white"/>
</g>
<defs>
<clipPath id="clip0_24_273">
<rect width="30" height="30" fill="white"/>
</clipPath>
</defs>
</svg>
