<?xml version="1.0" encoding="UTF-8"?>
<svg xmlns="http://www.w3.org/2000/svg" xmlns:xlink="http://www.w3.org/1999/xlink" viewBox="0 0 900 900">
  
  <g>
    <g>
      <g>
        <g>
          <path class="cls-3" d="m834.36,571.05h-60.64V123.06c0-17.84-14.51-32.35-32.35-32.35s-32.35,14.51-32.35,32.35v447.98H190.97V124.67c0-17.84-14.51-32.35-32.35-32.35s-32.35,14.51-32.35,32.35v446.37h-60.64c-36.2,0-65.64,29.44-65.64,65.64v69.99c0,36.19,29.44,65.64,65.64,65.64h9.08v11.89c0,13.82,11.25,25.07,25.07,25.07h20.59c13.82,0,25.07-11.25,25.07-25.07v-11.89h609.11v11.62c0,13.97,11.37,25.34,25.34,25.34h20.04c13.97,0,25.34-11.37,25.34-25.34v-11.62h9.09c36.19,0,65.64-29.45,65.64-65.64v-69.99c0-36.2-29.45-65.64-65.64-65.64ZM126.28,784.21c0,3.25-2.65,5.9-5.9,5.9h-20.59c-3.25,0-5.9-2.65-5.9-5.9v-11.87h32.39v11.87ZM728.2,123.06c0-7.26,5.9-13.18,13.18-13.18s13.18,5.91,13.18,13.18v445.82h-26.36V123.06Zm-582.76,1.61c0-7.26,5.9-13.18,13.18-13.18s13.18,5.91,13.18,13.18v445.82h-26.36V124.67Zm660.67,659.27c0,3.4-2.77,6.17-6.17,6.17h-20.04c-3.4,0-6.17-2.77-6.17-6.17v-11.61h32.38v11.61Zm74.72-77.26c0,25.63-20.85,46.47-46.47,46.47H65.64c-25.63,0-46.47-20.84-46.47-46.47v-69.99c0-25.63,20.84-46.47,46.47-46.47h768.72c25.62,0,46.47,20.84,46.47,46.47v69.99Z"/>
          <path class="cls-3" d="m254.94,701.7H82.33v-60.03h172.61v60.03Zm-158.12-12.59h143.63v-34.85H96.82v34.85Z"/>
          <g>
            <rect class="cls-3" x="539.5" y="656.12" width="31.12" height="31.12" rx="13.37" ry="13.37"/>
            <rect class="cls-3" x="621.19" y="656.12" width="31.12" height="31.12" rx="13.37" ry="13.37"/>
            <rect class="cls-3" x="702.88" y="656.12" width="31.12" height="31.12" rx="13.37" ry="13.37"/>
            <rect class="cls-3" x="784.57" y="656.12" width="31.12" height="31.12" rx="13.37" ry="13.37"/>
          </g>
        </g>
        <path class="cls-3" d="m563.19,390.52c-3.99,3.1-9.7,2.55-13.04-1.24-25.87-29.26-62.57-45.87-102.01-45.87s-76.14,16.61-102.01,45.87c-3.35,3.78-9.05,4.33-13.04,1.24h0c-4.36-3.38-4.97-9.75-1.32-13.89,13.9-15.77,30.49-28.29,49.42-37.3,20.7-9.84,43.84-15.05,66.94-15.05s46.24,5.2,66.94,15.05c18.93,9.01,35.52,21.53,49.42,37.3,3.65,4.14,3.04,10.5-1.32,13.89h0Z"/>
        <path class="cls-3" d="m368.1,431.35h0c-4.43-3.49-4.89-10.02-1.01-14.11,20.76-21.86,49.15-34.17,79.46-34.17.29,0,.58,0,.87,0,30.13.23,58.07,12.57,78.14,34.19,3.84,4.14,3.27,10.68-1.22,14.11h0c-3.93,3-9.47,2.49-12.83-1.12-16.49-17.73-39.46-27.85-64.24-28.04-25.27-.2-48.99,9.99-66.31,28.21-3.41,3.58-8.98,3.99-12.86.93Z"/>
        <path class="cls-3" d="m405.79,474.89h0c-4.65-3.67-4.9-10.64-.5-14.61,11.76-10.6,26.91-16.5,42.98-16.5.17,0,.34,0,.51,0,15.95.12,30.87,6.03,42.29,16.5,4.38,4.01,4.02,11.02-.7,14.62h0c-3.67,2.8-8.83,2.59-12.23-.52-7.96-7.28-18.36-11.38-29.5-11.47-11.42-.09-22.21,4.08-30.58,11.62-3.44,3.1-8.63,3.22-12.26.35Z"/>
      </g>
    </g>
  </g>
</svg>