<?xml version="1.0" encoding="UTF-8"?>
<svg xmlns="http://www.w3.org/2000/svg" viewBox="0 0 512 512">
      <path class="cls-1" d="m255.92,511.99c-13.76,0-27.38-1.22-40.47-3.61-12.1-2.11-21.65-11.78-24.34-24.65l-10.41-50.17c-11.8-5.53-23.06-12.38-33.59-20.43l-45.89,15.39c-12.05,4.05-25.33.13-33.01-9.76-7.73-9.88-14.78-20.38-20.93-31.18l-.07-.12-4.38-7.96c-5.89-11.22-10.93-22.76-14.98-34.31-4.14-11.86-.88-25.14,8.3-33.85l36.03-34.59c-.71-6.98-1.07-13.96-1.07-20.8s.36-13.84,1.08-20.9l-36.08-34.64c-9.14-8.66-12.4-21.94-8.26-33.79,4.05-11.57,9.09-23.11,14.98-34.32l.09-.17,4.36-7.91c6.12-10.77,13.17-21.27,20.95-31.21,7.76-9.86,21.01-13.76,33-9.73l45.8,15.47c10.51-8.05,21.77-14.89,33.58-20.42l10.41-50.17c2.69-12.89,12.26-22.57,24.39-24.66,26.47-4.65,54.34-4.65,80.86,0,12.1,2.09,21.68,11.76,24.36,24.65l10.41,50.17c11.8,5.53,23.06,12.38,33.59,20.43l45.89-15.39c12.06-4.05,25.33-.13,33.01,9.77,7.74,9.88,14.79,20.38,20.93,31.18l.06.12,4.38,7.96c5.89,11.21,10.93,22.75,14.98,34.31,4.14,11.87.88,25.15-8.3,33.85l-36.04,34.59c.71,6.98,1.07,13.96,1.07,20.81s-.36,13.82-1.07,20.8l36.08,34.63c7.61,7.22,11.15,17.64,9.72,27.78l.57.6-1.94,5.53c-4.05,11.56-9.09,23.1-14.98,34.31l-.09.17-4.36,7.91c-6.11,10.76-13.17,21.27-20.95,31.22-7.76,9.86-21.01,13.76-33,9.73l-45.89-15.38c-10.52,8.05-21.78,14.9-33.59,20.43l-10.41,50.17c-2.69,12.89-12.26,22.57-24.39,24.66-13.24,2.32-26.84,3.51-40.42,3.51Zm-104.98-120.45l4.11,3.33c11.69,9.48,24.44,17.25,37.92,23.1l4.58,1.99,12.42,59.85c1.06,5.09,4.52,8.87,8.82,9.61l.1.02c23.78,4.36,49.67,4.39,74.16.08,4.32-.75,7.79-4.52,8.85-9.62l12.42-59.84,4.58-1.99c13.49-5.86,26.25-13.63,37.91-23.1l4.11-3.33,55.84,18.72c4.36,1.47,8.97.14,11.73-3.37,7.18-9.17,13.68-18.86,19.33-28.78l4.22-7.66c4.5-8.58,8.47-17.37,11.82-26.18l-.03-.03,1.92-5.52c1.62-4.64.26-10.08-3.37-13.52l-43.04-41.32.6-4.79c.98-7.8,1.47-15.62,1.47-23.25s-.5-15.45-1.47-23.25l-.6-4.79,43-41.27c3.68-3.49,5.04-8.92,3.42-13.57-3.73-10.63-8.37-21.28-13.81-31.63l-4.21-7.65c-5.67-9.96-12.18-19.65-19.34-28.8-2.74-3.52-7.32-4.83-11.71-3.35l-55.85,18.72-4.11-3.33c-11.68-9.48-24.44-17.25-37.91-23.1l-4.58-1.99-12.42-59.85c-1.06-5.09-4.52-8.87-8.82-9.61-24.39-4.28-49.93-4.28-74.26,0-4.32.75-7.78,4.52-8.85,9.62l-12.42,59.84-4.58,1.99c-13.49,5.86-26.24,13.63-37.91,23.1l-4.12,3.34-55.76-18.83c-4.34-1.46-8.94-.14-11.71,3.38-7.18,9.17-13.69,18.86-19.33,28.79l-4.21,7.65c-5.44,10.36-10.08,21-13.81,31.64-1.61,4.63-.26,10.06,3.38,13.51l43.04,41.31-.59,4.79c-.98,7.91-1.48,15.77-1.48,23.37s.5,15.45,1.47,23.25l.6,4.79-43,41.28c-3.68,3.49-5.04,8.92-3.42,13.57,3.72,10.62,8.37,21.27,13.81,31.63l4.21,7.65c5.67,9.97,12.18,19.66,19.35,28.8,2.74,3.52,7.33,4.83,11.71,3.35l55.85-18.72Zm104.97-48.96c-45.56,0-82.62-33.54-82.62-74.77s37.06-74.77,82.62-74.77,82.62,33.54,82.62,74.77-37.07,74.77-82.62,74.77Zm0-130.29c-34.95,0-63.38,24.91-63.38,55.52s28.43,55.52,63.38,55.52,63.38-24.91,63.38-55.52-28.43-55.52-63.38-55.52Z"/>
</svg>