<?xml version="1.0" encoding="UTF-8"?>
<svg xmlns="http://www.w3.org/2000/svg" viewBox="0 0 512 512">
  
      <path d="m483.49,345.37c3.03-8.7.47-18.4-6.07-24.6l-41.06-39.41c1.04-8.3,1.61-16.8,1.61-25.4s-.57-17.1-1.61-25.41l41.06-39.41c6.54-6.2,9.1-15.9,6.07-24.6-4.17-11.9-9.2-23.3-14.98-34.31l-4.46-8.1c-6.26-11.01-13.27-21.4-20.95-31.21-5.6-7.2-14.88-9.6-23.23-6.8l-52.81,17.7c-12.7-10.3-26.73-18.9-41.71-25.41l-11.85-57.11c-1.9-9.1-8.53-16.3-17.25-17.8-13.08-2.3-26.55-3.5-40.29-3.5s-27.21,1.2-40.3,3.5c-8.72,1.5-15.36,8.7-17.25,17.8l-11.85,57.11c-14.98,6.5-29.01,15.1-41.71,25.41l-52.71-17.8c-8.34-2.8-17.64-.3-23.23,6.8-7.68,9.81-14.7,20.2-20.95,31.21l-4.46,8.1c-5.78,11.01-10.81,22.41-14.98,34.31-3.03,8.7-.47,18.4,6.07,24.6l41.06,39.41c-1.04,8.4-1.61,16.9-1.61,25.51s.57,17.1,1.61,25.4l-41.06,39.41c-6.54,6.2-9.1,15.9-6.07,24.6,4.17,11.9,9.2,23.3,14.98,34.31l4.46,8.1c6.26,11,13.27,21.4,20.95,31.21,5.6,7.21,14.88,9.6,23.23,6.8l52.81-17.7c12.71,10.3,26.73,18.9,41.71,25.41l11.85,57.11c1.9,9.1,8.53,16.3,17.25,17.81,13.08,2.4,26.55,3.6,40.3,3.6s27.21-1.2,40.29-3.5c8.72-1.5,15.36-8.7,17.25-17.8l11.85-57.11c14.98-6.5,29.01-15.1,41.71-25.41l52.81,17.7c8.34,2.8,17.64.3,23.23-6.8,7.68-9.81,14.7-20.2,20.95-31.21l4.46-8.1c5.78-11,10.81-22.41,14.98-34.31l-.1-.1Zm-227.45-144.77c41.89,0,75.85,30.3,75.85,67.69s-33.95,67.69-75.85,67.69-75.85-30.3-75.85-67.69,33.95-67.69,75.85-67.69Z"/>

</svg>