<?xml version="1.0" encoding="UTF-8"?>
<svg id="_Слой_2" data-name="Слой 2" xmlns="http://www.w3.org/2000/svg" xmlns:xlink="http://www.w3.org/1999/xlink" viewBox="0 0 900 900">
  <defs>
    <style>
      .cls-1 {
        clip-path: url(#clippath);
      }

      .cls-2 {
        fill: none;
      }

      .cls-3 {
        fill: #1d1d1b;
      }
    </style>
    <clipPath id="clippath">
      <rect class="cls-2" y="0" width="900" height="900"/>
    </clipPath>
  </defs>
  <g>
    <g>
      <path d="m710.68,642.79l-222.87-192.73,222.25-186.49c12.81-10.75,12.96-30.42.31-41.35L461.07,6.67c-17.6-15.21-44.93-2.71-44.93,20.55v360.9l-191.29-165.39c-11.35-9.81-28.5-8.57-38.31,2.78h0c-9.81,11.35-8.56,28.5,2.78,38.31l214.7,185.64-206.82,173.54c-11.49,9.64-12.99,26.78-3.35,38.27h0c9.64,11.49,26.78,12.99,38.27,3.35l184.02-154.42v362.58c0,23.07,26.95,35.64,44.62,20.81l249.61-209.45c12.81-10.75,12.96-30.41.31-41.35Zm-59.66,20.23l-180.56,151.5v-307.64l180.56,156.13ZM470.47,86.62l180.24,155.84-180.24,151.24V86.62Z"/>
    </g>
  </g>
</svg>