<?xml version="1.0" encoding="UTF-8"?>
<svg id="_Слой_2" data-name="Слой 2" xmlns="http://www.w3.org/2000/svg" xmlns:xlink="http://www.w3.org/1999/xlink" viewBox="0 0 900 900">
  <defs>
    <style>
      .cls-1 {
        clip-path: url(#clippath);
      }

      .cls-2 {
        fill: none;
      }

      .cls-3 {
        fill: #1d1d1b;
      }
    </style>
    <clipPath id="clippath">
      <rect class="cls-2" width="900" height="900"/>
    </clipPath>
  </defs>
  <g id="_Слой_1-2" data-name="Слой 1">
    <g>
      <path d="m855.63,891.62c-19.33,0-35-15.67-35-35V43.37c0-19.33,15.67-35,35-35s35,15.67,35,35v813.25c0,19.33-15.67,35-35,35Zm-271.08,0c-19.33,0-35-15.67-35-35V269.28c0-19.33,15.67-35,35-35s35,15.67,35,35v587.35c0,19.33-15.67,35-35,35Zm-271.08,0c-19.33,0-35-15.67-35-35v-361.44c0-19.33,15.67-35,35-35s35,15.67,35,35v361.44c0,19.33-15.67,35-35,35Zm-271.08,0c-19.33,0-35-15.67-35-35v-180.72c0-19.33,15.67-35,35-35s35,15.67,35,35v180.72c0,19.33-15.67,35-35,35Z"/>
    </g>
  </g>
</svg>