<?xml version="1.0" encoding="UTF-8"?>
<svg id="_Слой_2" data-name="Слой 2" xmlns="http://www.w3.org/2000/svg" xmlns:xlink="http://www.w3.org/1999/xlink" viewBox="0 0 900 900">
  <defs>
    <style>
      .cls-1 {
        clip-path: url(#clippath);
      }

      .cls-2 {
        fill: none;
      }

      .cls-3 {
        fill: #1d1d1b;
      }
    </style>
    <clipPath id="clippath">
      <rect class="cls-2" width="900" height="900"/>
    </clipPath>
  </defs>
  <g id="_Слой_1-2" data-name="Слой 1">
    <g class="cls-1">
      <g>
        <path class="cls-3" d="m758.59,133.52C678.84,55.75,569.92,7.75,449.99,7.75,206.15,7.75,7.76,206.16,7.76,450c0,3.73.46,7.35.55,11.05-.2.92-.55,1.77-.55,2.78,0,1.65.41,3.17.93,4.63,3.78,90.92,35.07,174.88,85.76,243.65l60.69-52.87c-15.67,8.6-30.57,17.95-44.76,27.89-42.12-60.15-68.43-131.9-73.57-209.49h110.12c2.48,58.21,12.68,113.31,29.21,163.3l22.48-19.59c-13.47-44.29-21.83-92.72-24.09-143.71h137.66c.27,14.51.77,29.03,1.48,43.49l26.7-23.26c-.23-6.68-.4-13.42-.52-20.23h23.74l31.72-27.64h-55.87c0-52.6,2.82-101.46,7.6-146.25,33.61,5.2,68.1,8.05,102.96,8.05s69.35-2.85,102.96-8.05c.29,2.71.57,5.44.84,8.18l55-47.92c-10.54,2.73-21.24,5.17-32.07,7.35-12.72-96.63-35.88-180.82-68.88-226.67,67.91,21.77,126.46,81.16,165.85,162.78l21.23-18.49c-26.1-51.85-59.69-95.2-98.57-126.41,53.06,20.11,100.99,50.66,141.14,89.32l21.09-18.37ZM303.67,62.58c-48.04,38.53-87.95,95.58-115.73,164.26-21.84-10.61-42.07-22.83-61-36.1,46.02-57.21,106.91-101.71,176.73-128.16Zm-157.72,387.43H35.38c0-88.18,27.89-169.84,74.99-237.12,20.98,14.73,43.59,28.13,67.92,39.8-20.51,59.48-32.35,126.37-32.35,197.32Zm165.85,0h-138.2c0-67.06,10.92-130.24,29.82-186.35,36.46,15.26,75.6,27.06,116.5,35.13-5.3,49.06-8.12,100.48-8.12,151.22Zm11.46-178.64c-38.78-7.76-75.81-19.12-110.25-33.64,38.81-97.1,103.13-168.66,179.17-193.03-33.03,45.85-56.2,130.06-68.92,226.67Zm226.55,4.89c-32.57,5.09-65.98,7.91-99.81,7.91s-67.25-2.82-99.81-7.91c19.21-147.46,61.11-240.85,99.81-240.85s80.6,93.39,99.81,240.85Zm342.44,173.75c0-94.26-29.64-181.72-80.11-253.56l-21.15,18.42c46.26,66.9,73.61,147.82,73.61,235.14h-110.56c0-64.05-9.64-124.8-26.61-179.77l-22.72,19.79c13.88,49.26,21.7,103.22,21.7,159.98h-138.21c0-19.11-.4-38.31-1.19-57.44l-26.85,23.39c.27,11.17.4,22.52.4,34.05h-39.48l-31.73,27.64h70.79c-.77,42.15-3.25,81.85-7.18,118.6-33.61-5.19-68.08-8.04-102.94-8.04-32.31,0-64.29,2.46-95.54,6.94l-40.75,35.5c3.16-.69,6.34-1.35,9.53-1.99,12.72,96.59,35.89,180.81,68.92,226.67-65.11-20.88-121.65-76.35-160.9-152.85l-21.11,18.39c25.32,47.51,57.07,87.36,93.5,116.57-49.65-18.8-94.8-46.76-133.28-81.91l-20.97,18.26c78.84,73.46,184.49,118.46,300.58,118.46,237.63,0,431.52-188.53,441.3-423.78.52-1.46.95-2.98.95-4.63,0-1.01-.37-1.86-.56-2.78.09-3.7.56-7.32.56-11.05Zm-304.43,27.64h137.64c-2.51,56.81-12.6,110.4-28.88,158.68-36.46-15.25-75.6-27.05-116.51-35.12,4.37-40.17,6.94-81.88,7.75-123.56Zm-137.82,386.97c-38.7,0-80.6-93.4-99.81-240.86,32.56-5.09,65.98-7.91,99.83-7.91s67.22,2.82,99.79,7.91c-19.21,147.46-61.12,240.86-99.81,240.86Zm126.73-235.96c38.81,7.79,75.82,19.12,110.26,33.63-38.81,97.1-103.13,168.66-179.17,193.07,33.03-45.89,56.19-130.11,68.91-226.7Zm19.6,208.78c48.03-38.52,87.94-95.57,115.7-164.27,21.83,10.62,42.07,22.84,61,36.08-46,57.22-106.89,101.75-176.7,128.19Zm193.29-150.33c-20.99-14.73-43.59-28.14-67.91-39.8,17.8-51.67,28.76-108.96,31.37-169.66h110.12c-5.14,77.56-31.46,149.32-73.58,209.46Z"/>
        <path class="cls-3" d="m895.02,81.24c.21,4.88-1.49,9.14-4.76,12l-1.92,1.67-91.93,80.08-100.5,87.56-109.82,95.67-25.91,22.57-82.27,71.67-32.42,28.25-97.02,84.53-25.37,22.09-31.6,27.53-54.26,47.27-15.14,13.19-21.5,18.74-49.34,42.97-20.8,18.12-94.08,81.96c-5.4,4.7-13.8,4.36-20.72-.24-1.73-1.16-3.38-2.58-4.86-4.26-3.55-4.05-5.63-8.97-5.82-13.85-.21-4.88,1.49-9.13,4.76-11.99l1.92-1.68,92.18-80.31,100.25-87.32,109.85-95.71,25.99-22.63,49.72-43.33,32.44-28.25,129.49-112.8,25.34-22.09,31.56-27.49,54.27-47.28,15.18-13.22,21.5-18.73,49.32-42.97,21.02-18.31,93.85-81.76c2.91-2.54,6.76-3.69,10.96-3.32.53.05,1.07.12,1.6.21,2.42.43,4.78,1.31,6.98,2.6.39.23.79.48,1.18.74,1.76,1.16,3.4,2.6,4.85,4.25,3.56,4.06,5.63,8.97,5.82,13.85Z"/>
      </g>
    </g>
  </g>
</svg>