<?xml version="1.0" encoding="UTF-8"?>
<svg id="_Слой_2" data-name="Слой 2" xmlns="http://www.w3.org/2000/svg" xmlns:xlink="http://www.w3.org/1999/xlink" viewBox="0 0 900 900">
  <defs>
    <style>
      .cls-1 {
        clip-path: url(#clippath);
      }



    </style>
    <clipPath id="clippath">
      <rect class="cls-2" width="900" height="900"/>
    </clipPath>
  </defs>
  <g id="_Слой_1-2" data-name="Слой 1">
    <g>
      <g>
        <path d="m870.21,481.44c-5.75,77.64-32.38,149.47-74.64,209.81-21.35-14.99-44.35-28.63-69.1-40.5,9.58-27.81,17.22-57.22,22.68-87.92-4.07,4.45-8.4,8.7-12.97,12.72-6.78,5.97-13.99,11.33-21.55,16.07-3.92,16.48-8.51,32.49-13.73,47.97-20.8-8.71-42.45-16.31-64.81-22.76h-.01c-3.4.22-6.82.32-10.25.32h-78.57c-14.47,0-26.68-9.83-30.32-23.15h-.01c-22.06-2.21-44.4-3.38-66.9-3.38s-44.89,1.18-66.97,3.39c-3.66,13.31-15.86,23.12-30.32,23.12h-78.57c-3.36,0-6.71-.1-10.05-.31h0c-22.43,6.47-44.15,14.08-65.02,22.8-5.22-15.5-9.82-31.53-13.74-48.04-7.56-4.74-14.76-10.1-21.54-16.06-4.57-4.02-8.9-8.27-12.97-12.73,5.46,30.72,13.1,60.16,22.69,87.99-24.75,11.87-47.73,25.51-69.1,40.5-42.27-60.35-68.89-132.18-74.64-209.87H1.66c16.22,233.46,210.81,418.59,448.34,418.59s432.09-185.12,448.33-418.56h-28.12ZM121.3,713.81c19.27-13.47,39.85-25.9,62.07-36.7,28.24,69.89,68.85,127.91,117.73,167.12-71.04-26.92-133-72.2-179.8-130.42Zm87.55-47.81c35.05-14.77,72.73-26.3,112.19-34.23,12.94,98.3,36.51,183.99,70.12,230.65-77.37-24.8-142.82-97.62-182.31-196.42Zm241.15,205.87c-39.38,0-82.02-95.03-101.56-245.08,33.13-5.17,67.13-8.04,101.59-8.04s68.4,2.87,101.53,8.04c-19.55,150.05-62.19,245.08-101.56,245.08Zm128.95-240.1c39.49,7.93,77.15,19.46,112.19,34.23-39.49,98.8-104.93,171.62-182.31,196.45,33.61-46.69,57.18-132.38,70.12-230.68Zm19.94,212.46c48.88-39.21,89.49-97.26,117.73-167.15,22.22,10.8,42.81,23.23,62.07,36.7-46.8,58.22-108.76,103.53-179.8,130.45ZM450,0C212.45,0,17.28,185.05,1.09,418.56h28.2c5.79-77.67,32.86-149.46,75.14-209.85,21.34,14.99,44.35,28.63,69.1,40.5-9.63,27.91-17.37,57.44-22.92,88.23,4.14-4.55,8.55-8.89,13.21-12.99,6.75-5.94,13.93-11.29,21.46-16.02,3.96-16.5,8.58-32.54,13.81-48.05,20.83,8.71,42.52,16.32,64.9,22.77,3.38-.21,6.77-.31,10.17-.31h78.58c8.39,0,16.28,3.27,22.22,9.21,3.93,3.93,6.7,8.72,8.1,13.95,22.08,2.21,44.43,3.37,66.94,3.37s44.87-1.16,66.94-3.37c1.41-5.22,4.17-10,8.1-13.93,5.93-5.93,13.82-9.2,22.22-9.2h78.57c3.37,0,6.73.1,10.08.31t.02,0h.01c22.42-6.47,44.1-14.09,64.96-22.8,5.23,15.52,9.86,31.56,13.82,48.07,7.53,4.72,14.71,10.08,21.47,16.02,4.65,4.1,9.06,8.43,13.19,12.97-5.54-30.79-13.29-60.32-22.91-88.23,24.75-11.87,47.75-25.51,69.1-40.5,42.27,60.39,69.34,132.19,75.13,209.87h28.21C882.73,185.06,687.56,0,450,0ZM183.34,222.92c-22.21-10.8-42.8-23.23-62.07-36.73,46.83-58.22,108.79-103.5,179.83-130.42-48.88,39.21-89.49,97.26-117.76,167.15Zm25.51,11.08c39.49-98.81,104.94-171.62,182.31-196.43-33.61,46.66-57.18,132.36-70.12,230.66-39.46-7.91-77.14-19.47-112.19-34.23Zm241.15,47.25c-34.43,0-68.43-2.87-101.56-8.05,19.54-150.04,62.18-245.08,101.56-245.08s82.01,95.04,101.56,245.08c-33.13,5.18-67.14,8.05-101.56,8.05Zm128.95-13.02c-12.94-98.33-36.51-184-70.09-230.66,77.37,24.81,142.82,97.62,182.31,196.43-35.07,14.76-72.76,26.29-112.22,34.23Zm137.7-45.31c-28.24-69.89-68.88-127.94-117.73-167.15,71.01,26.92,132.97,72.2,179.8,130.44-19.26,13.48-39.85,25.91-62.07,36.71Z"/>
        <g>
          <path d="m849.72,450c0,2.39-.93,4.64-2.63,6.34-1.69,1.69-3.95,2.63-6.34,2.63h-103.34s-.93,6.78-.93,6.78c-.29,2.12-.64,4.22-1.04,6.3-2.26,11.69-6.29,22.71-11.79,32.82-6.89,12.68-16.09,23.9-27,33.13-20.26,17.14-46.39,27.41-74.51,27.41h-61.62c-4.94,0-8.96-4.02-8.96-8.96v-212.89c0-2.39.93-4.64,2.63-6.34,1.69-1.69,3.95-2.62,6.34-2.62h61.62c28.18,0,54.37,10.31,74.65,27.53,11,9.33,20.25,20.69,27.15,33.54h0c6.32,11.76,10.67,24.77,12.55,38.6l.92,6.78h77.58s25.76,0,25.76,0c2.39,0,4.64.93,6.34,2.63,1.69,1.69,2.63,3.95,2.63,6.34Z"/>
          <path d="m409.64,510.45c0,2.29-.89,4.43-2.5,6.04-.81.81-1.75,1.44-2.77,1.85-1.02.43-2.12.65-3.27.65h-71.67v32.46c0,4.71-3.83,8.54-8.54,8.54h-58.73c-26.8,0-51.72-9.79-71.02-26.13-10.38-8.78-19.15-19.47-25.72-31.55-5.24-9.63-9.09-20.14-11.24-31.28-.4-1.99-.73-4-1-6.03l-.88-6.47H53.79c-4.72,0-8.54-3.83-8.54-8.54,0-2.28.88-4.43,2.5-6.03,1.61-1.61,3.76-2.5,6.04-2.5h98.5s.88-6.47.88-6.47c1.79-13.17,5.94-25.57,11.95-36.76,6.57-12.25,15.4-23.08,25.88-31.98,19.33-16.41,44.29-26.24,71.14-26.24h58.74c2.28,0,4.43.89,6.04,2.5s2.5,3.76,2.5,6.04v32.32s71.7,0,71.7,0c2.28,0,4.43.89,6.04,2.5,1.61,1.61,2.5,3.76,2.5,6.04,0,4.71-3.83,8.54-8.54,8.54h-71.7v103.95h71.67c4.71,0,8.54,3.83,8.54,8.54Z"/>
        </g>
      </g>
    </g>
  </g>
</svg>