<?xml version="1.0" encoding="UTF-8"?>
<svg id="_Слой_2" data-name="Слой 2" xmlns="http://www.w3.org/2000/svg" xmlns:xlink="http://www.w3.org/1999/xlink" viewBox="0 0 900 900">
  <defs>
    <style>
      .cls-1 {
        clip-path: url(#clippath);
      }

      .cls-2 {
        fill: none;
      }

      .cls-3 {
        fill: #1d1d1b;
      }
    </style>
    <clipPath id="clippath">
      <rect class="cls-2" y="0" width="900" height="900"/>
    </clipPath>
  </defs>
  <g id="_Слой_1-2" data-name="Слой 1">
    <g>
      <path d="m.96,468.79c9.96,239.37,207.25,431.21,449.04,431.21s439.09-191.84,449.04-431.21c.53-1.49.96-3.04.96-4.72,0-1.01-.37-1.88-.56-2.81.08-3.77.56-7.45.56-11.25C900,201.88,698.12,0,450,0S0,201.88,0,450c0,3.8.48,7.48.56,11.25-.2.93-.56,1.8-.56,2.81,0,1.69.42,3.23.96,4.72Zm699.95,170.8c-37.1-15.53-76.92-27.53-118.55-35.75,4.44-40.87,7.06-83.31,7.88-125.72h140.06c-2.56,57.8-12.82,112.33-29.39,161.47Zm57.49-161.47h112.05c-5.23,78.92-32.01,151.93-74.87,213.13-21.35-14.99-44.35-28.63-69.1-40.5,18.11-52.57,29.28-110.87,31.92-172.63Zm-409.95,148.67c33.13-5.18,67.13-8.04,101.59-8.04s68.4,2.87,101.53,8.04c-19.55,150.05-62.18,245.08-101.56,245.08s-82.01-95.03-101.56-245.08Zm42.72,235.63c-77.37-24.81-142.82-97.62-182.31-196.42,35.04-14.77,72.73-26.3,112.19-34.23,12.94,98.3,36.51,183.99,70.12,230.65Zm-45.93-561.23c34.2,5.29,69.3,8.18,104.77,8.18s70.57-2.9,104.77-8.18c4.87,45.56,7.73,95.29,7.73,148.81h-225c0-53.52,2.87-103.25,7.73-148.81Zm216.84,176.93c-.79,42.89-3.32,83.28-7.31,120.68-34.2-5.29-69.27-8.18-104.74-8.18s-70.59,2.93-104.79,8.18c-3.97-37.41-6.53-77.79-7.31-120.68h224.16Zm16.87,153.65c39.49,7.93,77.15,19.46,112.19,34.23-39.49,98.8-104.93,171.62-182.31,196.45,33.61-46.69,57.18-132.38,70.12-230.68Zm11.67-181.77c0-51.64-2.84-103.95-8.27-153.87,41.62-8.21,81.45-20.25,118.55-35.75,19.24,57.09,30.35,121.39,30.35,189.62h-140.62Zm-11.67-181.77c-12.94-98.33-36.51-183.99-70.09-230.65,77.37,24.81,142.82,97.62,182.31,196.43-35.07,14.77-72.76,26.3-112.22,34.23Zm-27.39,4.98c-33.13,5.18-67.13,8.04-101.56,8.04s-68.43-2.87-101.56-8.04c19.55-150.05,62.18-245.08,101.56-245.08s82.01,95.03,101.56,245.08Zm-230.51-4.98c-39.46-7.9-77.15-19.46-112.19-34.23,39.49-98.8,104.93-171.62,182.31-196.43-33.61,46.66-57.18,132.36-70.12,230.65Zm-3.4,27.9c-5.4,49.92-8.27,102.23-8.27,153.87h-140.62c0-68.23,11.11-132.52,30.35-189.62,37.1,15.53,76.92,27.53,118.55,35.75Zm-7.87,182c.82,42.41,3.43,84.85,7.87,125.75-41.63,8.24-81.45,20.25-118.55,35.75-16.57-49.13-26.83-103.7-29.39-161.49h140.06Zm-136.24,172.66c-24.75,11.87-47.73,25.51-69.1,40.5-42.86-61.2-69.64-134.21-74.87-213.16h112.05c2.64,61.76,13.81,120.09,31.92,172.66Zm-52.23,63.03c19.27-13.47,39.85-25.9,62.07-36.7,28.24,69.89,68.85,127.91,117.73,167.12-71.04-26.92-133-72.2-179.8-130.42Zm477.59,130.42c48.88-39.21,89.49-97.26,117.73-167.15,22.22,10.8,42.81,23.23,62.07,36.7-46.8,58.22-108.76,103.53-179.8,130.44Zm160.48-394.23c0-72.2-12.04-140.26-32.91-200.78,24.75-11.87,47.76-25.51,69.1-40.5,47.92,68.46,76.3,151.57,76.3,241.28h-112.5Zm19.35-263.78c-19.27,13.47-39.85,25.9-62.07,36.7-28.24-69.89-68.88-127.94-117.73-167.15,71.02,26.92,132.98,72.2,179.8,130.44ZM301.11,55.77c-48.88,39.21-89.49,97.26-117.76,167.15-22.22-10.8-42.81-23.23-62.07-36.73,46.83-58.22,108.79-103.5,179.83-130.42ZM104.43,208.72c21.35,14.99,44.35,28.63,69.1,40.5-20.87,60.52-32.91,128.59-32.91,200.78H28.12c0-89.72,28.38-172.83,76.3-241.28Z"/>
    </g>
  </g>
</svg>