<?xml version="1.0" encoding="UTF-8"?>
<svg id="_Слой_2" data-name="Слой 2" xmlns="http://www.w3.org/2000/svg" xmlns:xlink="http://www.w3.org/1999/xlink" viewBox="0 0 900 900">
  <defs>
    <style>
      .cls-1 {
        clip-path: url(#clippath);
      }

      .cls-2 {
        fill: none;
      }

      .cls-3 {
        fill: #010101;
      }
    </style>
    <clipPath id="clippath">
      <rect class="cls-2" width="900" height="900"/>
    </clipPath>
  </defs>
  <g id="_Слой_1-2" data-name="Слой 1">
    <g>
      <path d="m428.54.18c-102.24,5.42-196.18,43.13-273.38,109.62-9.71,8.37-31.45,29.76-40.11,39.47-36.38,40.74-64.39,85.91-84.02,135.65-15.76,39.89-25.4,80.56-29.77,126.08-1.69,17.73-1.69,60.37,0,78.1,7.6,78.8,32.09,147.96,75.15,212.2,24.98,37.36,58.83,73.81,94.57,102.02,69.59,54.88,149.53,86.68,239.95,95.41,17.73,1.69,60.38,1.69,78.11,0,78.32-7.53,147.98-32.08,211.38-74.51,23.78-15.97,43.21-31.8,64.67-52.98,18.58-18.22,29.62-30.75,44.47-50.45,51.23-67.83,80.78-144.73,89.16-231.69,1.69-17.73,1.69-60.37,0-78.1-9.64-100.05-47.78-187.79-113.78-261.74-8.66-9.71-30.4-31.1-40.11-39.47C672.29,47.25,585.46,10.38,489.76,1.52c-11.4-1.06-50.38-1.9-61.22-1.34Zm36.94,167.81c43.28,4.29,81.34,21.25,108.01,48.06,17.31,17.38,30.12,40.32,36.17,64.8,3.1,12.52,3.94,20.9,3.94,40.46,0,24.34-2.18,39.89-7.81,56.71-9.71,28.99-29.06,51.01-58.76,66.7-15.34,8.09-29.77,13.02-54.25,18.36l-15.2,3.38-.28,21.88c-.35,23.71-.56,25.12-4.78,33.49-3.59,7.11-10.91,13.16-19.77,16.25-6.61,2.39-20.05,2.39-27.02.07-11.96-4.01-19.07-11.75-22.66-24.77-1.13-4.15-1.27-8.23-1.27-43.97s.14-39.82,1.2-43.27c2.6-8.37,7.39-10.41,38.56-16.82,21.81-4.5,32.86-8.3,44.54-15.27,23.29-14,36.31-35.18,38.42-62.48,1.83-24.06-5.21-42.36-23.08-60.3-7.88-7.88-12.6-11.33-21.18-15.48-11.82-5.7-22.38-7.95-38.35-7.95-21.74-.07-37.22,4.01-51.72,13.51-7.88,5.21-20.83,18.15-31.45,31.45-9.71,12.1-19.98,22.37-24.42,24.34-4.08,1.76-14.21,2.74-20.13,1.97-6.61-.91-11.54-3.59-17.31-9.36-8.66-8.65-11.4-16.75-10.63-31.59,1.2-21.88,8.3-38.63,24-56.29,17.31-19.35,41.52-34.76,70.09-44.4,28.57-9.64,54.68-12.52,85.14-9.5Zm-17.94,491.11c4.71.91,12.53,4.85,17.31,8.65,4.78,3.87,8.73,8.87,12.53,15.9,12.95,24.06.28,54.18-26.67,63.39-6.97,2.39-18.15,2.25-25.4-.21-7.67-2.67-13.65-6.4-19.35-12.1-8.94-8.94-12.74-19.56-12.03-33.42.56-12.38,4.64-21.04,13.93-29.97,11.96-11.4,24.28-15.2,39.69-12.24Z"/>
    </g>
  </g>
</svg>