<?xml version="1.0" encoding="UTF-8"?>
<svg id="_Слой_2" data-name="Слой 2" xmlns="http://www.w3.org/2000/svg" xmlns:xlink="http://www.w3.org/1999/xlink" viewBox="0 0 900 900">
  <defs>
    <style>
      .cls-1 {
        clip-path: url(#clippath);
      }

      .cls-2 {
        fill: none;
      }

      .cls-3 {
        fill: #fff;
      }
    </style>
    <clipPath id="clippath">
      <rect class="cls-2" width="900" height="900"/>
    </clipPath>
  </defs>
  <g id="_Слой_1-2" data-name="Слой 1">
    <g>
      <g>
        <path d="m871.01,342.22c-14.61,11.33-35.48,9.32-47.73-4.53-94.67-107.07-228.95-167.84-373.28-167.84s-278.61,60.77-373.28,167.84c-12.25,13.85-33.12,15.86-47.73,4.53h0c-15.96-12.38-18.17-35.67-4.82-50.82,50.88-57.71,111.57-103.53,180.86-136.48,75.74-36.02,160.44-55.06,244.96-55.06s169.23,19.04,244.96,55.06c69.29,32.96,129.98,78.78,180.86,136.48,13.36,15.15,11.14,38.44-4.82,50.82h0Z"/>
        <path d="m157.11,491.6h0c-16.19-12.76-17.9-36.68-3.7-51.63,75.96-79.99,179.87-125.04,290.76-125.04,1.07,0,2.13,0,3.19.01,110.26.86,212.5,46.01,285.94,125.11,14.05,15.13,11.96,39.09-4.45,51.62h0c-14.37,10.96-34.66,9.13-46.96-4.1-60.35-64.89-144.39-101.92-235.07-102.63-92.48-.72-179.27,36.56-242.65,103.25-12.46,13.12-32.85,14.61-47.06,3.41Z"/>
        <path d="m295.02,650.95h0c-17.02-13.41-17.92-38.95-1.82-53.46,43.02-38.78,98.47-60.37,157.28-60.37.62,0,1.25,0,1.88,0,58.39.46,112.95,22.07,154.74,60.38,16.01,14.68,14.71,40.33-2.56,53.51h0c-13.43,10.26-32.3,9.48-44.77-1.92-29.13-26.64-67.19-41.66-107.95-41.98-41.79-.32-81.29,14.91-111.9,42.53-12.58,11.35-31.58,11.78-44.88,1.29Z"/>
        <circle cx="450" cy="757.41" r="42.74" transform="translate(-390.54 1021.36) rotate(-76.72)"/>
      </g>
    </g>
  </g>
</svg>