<?xml version="1.0" encoding="UTF-8"?>
<svg id="_Слой_2" data-name="Слой 2" xmlns="http://www.w3.org/2000/svg" xmlns:xlink="http://www.w3.org/1999/xlink" viewBox="0 0 900 900">
  <defs>
    <style>
      .cls-1 {
        clip-path: url(#clippath);
      }

      .cls-2 {
        fill: none;
      }

      .cls-3 {
        fill: #1d1d1b;
      }
    </style>
    <clipPath id="clippath">
      <rect class="cls-2" width="900" height="900"/>
    </clipPath>
  </defs>
  <g id="_Слой_1-2" data-name="Слой 1">
    <g>
      <g>
        <path d="m559.19,63.71c-5.51,5.47-5.55,14.37-.08,19.89.03.03.05.05.08.08,60.06,60.61,60.56,158.15,1.13,219.37-5.45,5.48-5.45,14.34,0,19.83,2.62,2.6,6.15,4.06,9.84,4.08,3.81.02,7.46-1.5,10.12-4.22,70.18-72.3,69.56-187.49-1.41-259.03-5.47-5.36-14.22-5.36-19.69,0Z"/>
        <path d="m619.94,362.68c-5.45,5.48-5.45,14.34,0,19.83,5.47,5.51,14.37,5.55,19.89.08.03-.03.05-.05.08-.08,103.08-105.25,102.45-273.8-1.41-378.28-5.43-5.4-14.18-5.46-19.69-.14-5.51,5.47-5.55,14.37-.08,19.89.03.03.05.05.08.08,92.95,93.56,93.45,244.45,1.13,338.62Z"/>
        <path d="m500.84,263.26c2.61,2.51,6.08,3.92,9.7,3.94,3.88.02,7.59-1.55,10.27-4.36,37.13-39.28,36.45-100.91-1.55-139.36-5.48-5.45-14.34-5.45-19.83,0-5.51,5.47-5.55,14.37-.08,19.89.03.03.05.05.08.08,27.26,27.6,27.7,71.85.98,99.98-5.34,5.6-5.15,14.46.42,19.83Z"/>
        <path d="m340.95,63.71c-5.48-5.45-14.34-5.45-19.83,0-71.43,71.62-72.05,187.34-1.41,259.73,2.66,2.72,6.32,4.24,10.12,4.22,3.69-.02,7.22-1.48,9.84-4.08,5.45-5.48,5.45-14.34,0-19.83-59.39-61.26-58.83-158.8,1.27-219.37,5.71-5.27,6.07-14.16.8-19.87-.26-.28-.52-.54-.8-.8Z"/>
        <path d="m261.49,4.09c-103.86,104.48-104.49,273.03-1.41,378.28,5.47,5.51,14.37,5.55,19.89.08.03-.03.05-.05.08-.08,5.45-5.48,5.45-14.34,0-19.83-92.2-94.19-91.63-244.98,1.27-338.48,5.51-5.47,5.55-14.37.08-19.89-.03-.03-.05-.05-.08-.08-5.48-5.45-14.34-5.45-19.83,0Z"/>
        <path d="m400.71,123.48c-5.48-5.45-14.34-5.45-19.83,0-37.87,38.56-38.37,100.19-1.12,139.36,2.67,2.81,6.39,4.38,10.27,4.36,7.77-.03,14.04-6.35,14.01-14.12-.01-3.59-1.4-7.05-3.88-9.65-26.71-28.13-26.28-72.38.98-99.98,5.4-5.58,5.25-14.49-.33-19.88-.03-.03-.06-.06-.09-.08Z"/>
        <path d="m253.2,815.63c-23.3,0-42.19,18.89-42.19,42.19h0v28.12c0,7.77,6.3,14.06,14.06,14.06h84.37c7.77,0,14.06-6.3,14.06-14.06v-28.12c.14-21.55-15.99-39.74-37.41-42.19l23.34-77.34h281.25l23.34,77.34c-21.41,2.44-37.54,20.63-37.41,42.19v28.12c0,7.77,6.3,14.06,14.06,14.06h84.37c7.77,0,14.06-6.3,14.06-14.06v-28.12c0-23.3-18.89-42.19-42.19-42.19h-3.66L467.79,234.99c21.14-9.79,30.35-34.86,20.57-56-9.79-21.14-34.86-30.35-56-20.57-21.14,9.79-30.35,34.86-20.57,56,4.2,9.08,11.49,16.37,20.57,20.57l-175.5,580.63h-3.66Zm42.19,42.19v14.06h-56.25v-14.06c0-7.77,6.3-14.06,14.06-14.06h28.12c7.77,0,14.06,6.3,14.06,14.06Zm222.89-358.59h-126.56l107.58-64.55,18.98,64.55Zm4.22,14.06l29.81,98.44h-189.84l159.89-98.44h.14Zm-136.69-27.28l64.26-212.34,44.44,147.09-108.7,65.25Zm-8.16,27.28h117.84l-144.84,89.16,27-89.16Zm-34.03,112.5h185.76l-214.59,95.48,28.83-95.48Zm-.98,98.44l214.87-95.48,28.12,95.48h-243Zm318.37,133.59v14.06h-56.25v-14.06c0-7.77,6.3-14.06,14.06-14.06h28.12c7.77,0,14.06,6.3,14.06,14.06ZM450.07,182.82c7.77,0,14.06,6.3,14.06,14.06s-6.3,14.06-14.06,14.06-14.06-6.3-14.06-14.06,6.3-14.06,14.06-14.06Z"/>
      </g>
    </g>
  </g>
</svg>